Coordinates
version=1
nRows=13
nColumns=34
inDegrees=yes

Units are S.I. units (second, meters, Newtons, ...)
If the header above contains a line with 'inDegrees', this indicates whether rotational values are in degrees (yes) or radians (no).

endheader
time	pelvis_tilt	pelvis_list	pelvis_rotation	pelvis_tx	pelvis_ty	pelvis_tz	hip_flexion_r	hip_adduction_r	hip_rotation_r	knee_angle_r	ankle_angle_r	subtalar_angle_r	mtp_angle_r	hip_flexion_l	hip_adduction_l	hip_rotation_l	knee_angle_l	ankle_angle_l	subtalar_angle_l	mtp_angle_l	lumbar_extension	lumbar_bending	lumbar_rotation	arm_flex_r	arm_add_r	arm_rot_r	elbow_flex_r	pro_sup_r	arm_flex_l	arm_add_l	arm_rot_l	elbow_flex_l	pro_sup_l
      2.63333330	     -7.64225375	      5.84796363	      4.96157041	      0.62222006	      1.12422408	     -0.03612547	     19.32849124	    -12.40212344	     -7.84716755	      6.24340171	    -34.59453887	      1.71096677	      0.00000000	     22.78175644	      0.38669941	     -8.99694237	     20.64378977	    -22.42565015	     14.75835103	      0.00000000	    -30.11003039	      0.51413792	     -5.54111007	    -21.50835042	    -17.61566533	     -3.56002223	     76.57627518	     89.62009052	    -28.06287771	    -13.56014790	     -6.95141565	     75.72567154	     79.52396154
      2.65000000	     -6.98279411	      5.85789881	      5.20135605	      0.63765339	      1.08342459	     -0.03482985	     18.57932775	    -12.34964020	     -8.57105239	      3.94210497	    -40.01359563	     -0.39451414	      0.00000000	     22.83516057	      0.96714173	     -9.87758681	     17.08828683	    -22.33746718	     16.90358609	      0.00000000	    -31.61860296	      1.17445046	     -4.03531773	    -22.37819560	    -18.23834905	     -5.49605465	     78.71829200	     88.48564120	    -25.51793541	    -13.17035826	     -6.52397647	     75.57250933	     77.82483892
      2.66666670	     -6.84722442	      5.76641820	      6.20180885	      0.65065706	      1.04853437	     -0.03506978	     18.39496471	    -12.41708424	     -8.77149969	      3.90912645	    -43.98545456	     -2.12068324	      0.00000000	     24.09140368	      1.61814005	     -9.31634305	     15.08226111	    -22.41939144	     17.79404060	      0.00000000	    -32.91938196	      1.80997335	     -3.71219908	    -21.51766073	    -19.07717268	     -5.97031579	     78.89800188	     88.29610790	    -23.24871591	    -12.68974164	     -6.56336975	     75.57663564	     77.48094379
      2.68333330	     -6.30785108	      5.37291857	      6.12198267	      0.66047350	      1.00594911	     -0.03712089	     19.04998010	    -11.93573725	     -5.97109264	      6.59380044	    -44.89824340	     -3.72919552	      0.00000000	     25.41938790	      1.59450958	     -8.18847222	     14.97493898	    -22.77376315	     17.68924893	      0.00000000	    -34.36482546	      2.51830334	     -2.69534210	    -19.65873966	    -21.02827663	     -6.44512892	     80.02580402	     88.13985947	    -20.71326208	    -11.82560443	     -6.75633773	     75.22531591	     77.15592651
      2.70000000	     -5.75115186	      4.16937756	      5.28555279	      0.67091839	      0.96434810	     -0.03762898	     20.67915377	    -10.56226904	     -3.51418887	     12.19248100	    -40.45044175	     -6.61343283	      0.00000000	     27.14399819	      0.32635869	     -6.62331806	     16.43451964	    -22.70097134	     16.59714558	      0.00000000	    -35.90079652	      3.43613150	     -0.67224133	    -17.00143994	    -23.79665141	     -6.58662312	     80.68927199	     88.04109064	    -18.24649212	    -10.66407371	     -7.04816277	     75.48332695	     76.96422128
      2.71666670	     -4.18140009	      2.19162600	      4.73439787	      0.67550646	      0.92937464	     -0.03064522	     22.45687901	     -7.93379397	     -0.66650682	     21.01592587	    -29.25283295	    -12.36973059	      0.00000000	     28.48099047	     -1.89778563	     -4.78850644	     19.81882909	    -20.84815004	     15.86864068	      0.00000000	    -38.82452935	      5.01204250	      1.26706770	    -12.50210174	    -26.28035469	     -6.91694749	     80.55847305	     87.97967933	    -14.18669775	     -9.86948147	     -7.14949813	     74.91959422	     76.87240293
      2.73333330	     -4.51804153	      1.55048485	      3.81297977	      0.68924739	      0.87615965	     -0.03144837	     28.28745128	     -6.38292019	      3.47223683	     34.45019276	    -13.16909338	    -17.71574517	      0.00000000	     33.12139435	     -3.01048774	     -3.55602972	     27.88007295	    -11.93999569	     13.33859369	      0.00000000	    -40.19312001	      4.73501040	      2.66795579	     -8.13187544	    -29.62639220	     -4.68762367	     80.48237570	     87.87429734	     -9.78259282	     -9.43587426	     -7.09416537	     73.34356205	     76.61257812
      2.75000000	     -5.05045974	      1.54108896	      4.09631839	      0.69194624	      0.83522862	     -0.03056550	     34.81482157	     -5.70065852	      5.80484759	     48.12916262	      3.03115112	    -20.06770213	      0.00000000	     40.07998358	     -2.78525729	     -1.98815585	     40.63705201	     -1.63953355	      9.12467641	      0.00000000	    -41.34971905	      4.11158017	      2.30684820	     -2.50514120	    -31.60596264	     -2.78366739	     79.51690194	     87.68138674	     -4.79537836	     -9.80989121	     -6.17668907	     72.16082021	     76.36382668
      2.76666670	     -5.18857114	      1.41577212	      3.91510836	      0.71098889	      0.79466098	     -0.02778345	     40.38740266	     -4.60953534	      7.23178427	     61.48576545	     17.52560112	    -18.26405450	      0.00000000	     46.41540201	     -2.64749808	      0.10774523	     54.42993861	      8.85422923	      5.32843667	      0.00000000	    -42.68275893	      3.45942459	      1.56973728	      3.94394716	    -32.92840799	     -0.03719627	     77.84813796	     87.56243178	      1.34594025	    -10.06824928	     -5.21447610	     69.00777086	     75.87055622
      2.78333330	     -5.06606821	      1.41073351	      3.38230500	      0.71508986	      0.78133506	     -0.02801461	     44.66747133	     -3.93337002	      7.84367984	     71.02400487	     24.78236346	    -15.69030907	      0.00000000	     50.94762865	     -1.61323678	      2.30844328	     65.12181726	     14.77030624	      1.48211766	      0.00000000	    -45.72512458	      2.73643735	      0.90480373	     12.90363927	    -33.53752888	      3.30737018	     74.68184389	     87.59409132	      9.04034323	    -10.13327135	     -3.43301552	     64.17542127	     75.12243326
      2.80000000	     -4.91725287	      1.16708151	      2.19202056	      0.72107704	      0.76997613	     -0.02606978	     47.91082557	     -2.78605082	      8.30986809	     77.13728905	     26.76591929	    -14.59965738	      0.00000000	     53.13313631	     -1.18032135	      4.03355468	     70.86979387	     18.19025830	     -0.97938906	      0.00000000	    -49.38876009	      2.14374105	     -0.38926314	     25.12958864	    -32.70764687	      9.87056743	     69.21178916	     87.78416781	     17.38128559	    -10.63367053	     -1.65371596	     59.43790461	     73.06574759
      2.81666670	     -6.03943719	      0.91503514	      0.88986056	      0.73156885	      0.73887189	     -0.02888733	     52.32010563	     -2.34626991	      8.10577714	     82.41674402	     27.12477553	    -13.91009103	      0.00000000	     56.72932957	     -0.88325237	      5.26939159	     76.57782429	     21.38398989	     -2.45958009	      0.00000000	    -52.65713056	      2.18042466	     -2.46438128	     36.38779909	    -30.90621036	     15.70950038	     66.81014901	     87.76403567	     23.49785953	    -11.82062048	     -2.10879187	     58.03244459	     69.03247981
      2.83333330	     -8.72838933	      0.81414500	     -0.78112956	      0.73625828	      0.71616384	     -0.02735502	     57.95692658	     -1.83553523	      8.35927653	     86.68975737	     28.33345561	    -11.77005306	      0.00000000	     61.51289021	     -1.03870220	      5.98926184	     80.86521032	     24.01597887	     -3.19571951	      0.00000000	    -54.06673914	      1.54204155	     -2.49687034	     44.03739753	    -29.56233475	     17.42790286	     67.23005227	     87.93043027	     30.40303819	    -12.60927181	     -1.00644888	     57.67399791	     67.22653029
